<?xml version="1.0" encoding="UTF-8"?>
<svg width="19px" height="16px" viewBox="0 0 19 16" version="1.1" xmlns="http://www.w3.org/2000/svg" xmlns:xlink="http://www.w3.org/1999/xlink">
    <!-- Generator: sketchtool 41 (35326) - http://www.bohemiancoding.com/sketch -->
    <title>B2EE161F-2980-4A0E-9DFF-2F88649F35A1</title>
    <desc>Created with sketchtool.</desc>
    <defs></defs>
    <g id="Mail" stroke="none" stroke-width="1" fill="none" fill-rule="evenodd">
        <g id="Artboard" transform="translate(-950.000000, -400.000000)" fill="#FFFFFF">
            <g id="Group" transform="translate(636.000000, 336.000000)">
                <g id="79692" transform="translate(314.000000, 64.000000)">
                    <path d="M17.6064556,0.118105263 L0.703422222,6.64252632 C-0.245944444,7.00905263 -0.232644444,7.57178947 0.732766667,7.89347368 L4.98496667,9.30947368 L6.6367,14.4490526 C6.8343,15.0974737 7.38846667,15.236 7.86832222,14.7566316 L10.1331222,12.4941053 C10.1428333,12.4844211 10.1517,12.4749474 10.1609889,12.4654737 L14.3086889,15.5928421 C15.1210444,16.2054737 15.9532444,15.8915789 16.1580222,14.8955789 L18.9603111,1.26273684 C19.1650889,0.266736842 18.5558222,-0.248210526 17.6064556,0.118105263 Z M14.8605333,3.76547368 L7.82694444,10.344 L7.82673333,10.3442105 L7.8261,10.3448421 C7.7026,10.4608421 7.60084444,10.6837895 7.58627778,10.8524211 L7.58627778,10.8524211 L7.39902222,13.0126316 C7.30444444,14.0873684 7.13492222,13.7132632 6.92782222,13.0677895 L5.58198889,8.93431579 L14.3979889,3.30336842 C15.7615556,2.456 15.7615556,2.94378947 14.8605333,3.76547368 Z" id="Shape"></path>
                </g>
            </g>
        </g>
    </g>
</svg>